<?xml version="1.0" encoding="utf-8"?>
<!-- Generator: Adobe Illustrator 16.0.0, SVG Export Plug-In . SVG Version: 6.00 Build 0)  -->
<!DOCTYPE svg PUBLIC "-//W3C//DTD SVG 1.1//EN" "http://www.w3.org/Graphics/SVG/1.1/DTD/svg11.dtd">
<svg fill="#FF8427" version="1.1" id="Layer_1"
	 xmlns="http://www.w3.org/2000/svg"
	 xmlns:xlink="http://www.w3.org/1999/xlink" x="0px" y="0px"
	 width="595.28px" height="841.89px" viewBox="0 0 595.28 841.89" enable-background="new 0 0 595.28 841.89" xml:space="preserve">
<g>
	<path d="M168.52,98.609c77.312-59.074,194.496-55.397,268.239,7.889c40.871,32.481,67.179,80.918,76.743,131.853
		c3.176-0.142,9.604-0.463,12.779-0.643c3.746,16.92,0.892,34.304,1.75,51.4c3.531,8.994,8.528,17.276,12.349,26.128
		c2.071,0.321,6.247,0.893,8.318,1.179c0.853,11.492,0.818,23.021,0.605,34.516c12.458,6.71,16.777,20.953,19.775,33.802
		c3.998,22.488,3.64,45.548,0.497,68.143c-2.391,13.524-7.532,27.342-18.773,35.98c-2-32.091-4.781-64.076-6.354-96.199
		c-2.854,35.909,1.213,71.924-0.286,107.903c-11.67,2.176-23.591,1.75-35.374,1.5c-1.282-15.311-3.89-30.445-7.28-45.406
		c-1.356,14.319,0.645,28.666-0.071,43.049c0.858,11.245-10.923,20.42-21.7,18.956c-6.996,0.32-12.1-5.285-17.74-8.499
		c1.426,11.28-2.677,24.345,5.103,33.909c13.387,19.347,18.346,43.37,17.454,66.606c-6.065-8.422-11.957-16.954-18.381-25.056
		c11.315,24.414,16.921,50.76,17.813,77.669c-6.247-7.996-11.886-16.453-18.313-24.31c3.499,17.743,5.248,35.729,1.785,53.619
		c-3.176-6.247-6.391-12.494-9.886-18.565c-4.176,22.488-12.386,45.085-28.486,61.893c0.323-7.564,0.715-15.094,1.145-22.63
		c-10.137,16.53-20.167,33.693-36.159,45.405c1.894-9.209,4.034-18.313,5.926-27.489c-13.493,16.636-27.736,33.38-47.082,43.336
		c4.714-9.098,8.534-18.635,11.602-28.409c-10.53,13.489-22.699,25.592-36.8,35.331c2.929-8.274,6.211-16.417,8.673-24.84
		c-7.673,11.065-16.097,22.024-28.235,28.557c2.249-8.423,4.926-16.78,6.247-25.453c-6.103,7.138-11.527,14.85-17.49,22.134
		c-4.71-7.57-9.531-15.1-14.813-22.273c-1.499,8.924,2.998,17.275,5.14,25.731c-12.241-6.602-21.06-17.274-28.375-28.799
		c1.962,8.638,5.639,16.739,9.245,24.805c-14.886-9.245-27.128-21.737-37.979-35.374c3.142,8.854,6.854,17.491,10.101,26.346
		c-18.954-8.247-32.303-25.097-44.368-41.229c1.428,9.314,3.32,18.523,5.176,27.769c-15.884-11.811-25.592-29.163-36.194-45.398
		c0.25,7.563,0.75,15.17,0.964,22.769c-15.42-17.527-24.237-39.802-28.52-62.501c-2.999,6.072-5.889,12.243-8.96,18.35
		c-5.032-18.202-2.176-37.054,3.106-54.789c-7.567,7.279-12.851,16.453-19.382,24.554c-0.463-26.483,6.175-52.216,16.919-76.274
		c-6.533,8.03-12.35,16.634-18.453,25.021c-0.964-25.418,5.389-51.973,21.702-71.926c0.606-9.78,0.75-19.561,0.641-29.342
		c-3.604,2.928-7.173,5.891-10.708,8.889c-10.779,2.069-22.807-0.858-27.84-11.524c-1.785-16.677,0.572-33.484-0.179-50.188
		c-4.711,14.703-5.14,30.271-8.459,45.225c-11.314,0.46-23.344,2.175-34.231-1.82c-2.89-36.837,3.143-73.96-1.604-110.618
		c1.035,31.733-4.677,63.108-4.534,94.808c-0.963,0.997-2.892,2.998-3.89,3.96c-19.491-23.522-18.919-55.863-17.563-84.738
		c1.072-18.918,4.927-41.406,22.025-52.615c-0.251-11.492-0.429-23.021,0.784-34.444c2.177-0.32,6.533-0.964,8.709-1.25
		c3.749-8.924,8.603-17.347,11.958-26.414c0.927-16.883-3.141-34.373,2.105-50.827c3.035,0.249,9.032,0.678,12.066,0.892
		C91.883,183.274,122.332,131.375,168.52,98.609 M160.808,123.951c-33.194,30.09-56.252,71.425-64.141,115.578
		c-1.606,15.668-0.429,31.519-0.714,47.259c-4.142,1.463-8.246,2.891-12.387,4.284c-2.426,4.996-4.889,9.993-7.174,15.062
		c-5.211,9.673-0.82,20.881-1.284,31.269c5.818,0.321,11.6,0.712,17.418,1.07c2.285-5.211,5.175-10.136,9.745-13.635
		c7.995,25.415,5.176,52.792,11.208,78.634c3.641,3.034,8.281,5.854,9.316,10.922c5.14,18.204,5.389,38.408,16.454,54.467
		c8.424,10.785,23.131,12.96,32.946,21.919l-9.888,0.996c6.355,17.708,20.99,35.625,41.405,35.45
		c-8.708,16.487-18.561,32.801-23.415,50.934c-2.677,8.673,5.282,15.491,13.136,16.669c58.217,14.563,119.502,16.487,178.613,6.316
		c14.204-2.565,28.697-4.817,41.832-11.099c3.248-23.062-12.493-43.049-22.486-62.576c8.854-0.815,18.168-2.852,24.271-9.885
		c7.498-8.241,20.559-19.096,12.063-30.766c12.674-6.749,28.271-12.068,33.338-27.021c10.495-17.457,2.573-43.726,20.667-56.504
		c2.751-11.744,2.82-24.022,6.675-35.517c4.462-14.919,0.252-30.554,1.785-45.76c5.961,4.605,10.422,10.674,12.674,17.882
		c5.711-1.499,11.527-2.391,17.419-3.104c0.035-7.639,0.391-15.313,2.032-22.774c-3.388-7.494-6.922-14.918-10.28-22.415
		c-4.245-1.607-8.494-3.248-12.705-4.89c-0.645-14.705,0.391-29.448-0.572-44.118c-12.777-89.627-92.769-164.264-183.074-170.831
		C259.682,66.163,202.249,86.116,160.808,123.951 M177.014,610.214c2.927,4.21,5.927,8.387,8.96,12.563
		c18.74,5.208,38.301,6.818,57.217,10.742c-14.099,0.217-28.127,1.854-42.226,2.496c-7.389-0.355-12.742,8.498-9.067,14.926
		c7.39,13.595,17.42,25.914,30.162,34.871c52.042,41.37,138.136,30.661,175.472-25.418c5.57-6.135,11.852-19.449,0.714-23.443
		c-13.454-2.504-27.446-0.97-40.87-4.358c15.958-2.824,32.163-4.607,47.758-9.174c6.892-1.032,9.462-8.171,13.065-13.135
		c-36.622,3.5-73.101,9.384-110.007,8.673C264.214,620.456,220.596,615.206,177.014,610.214 M235.088,95.04
		c16.99-3.677,31.982,7.21,46.259,14.598c28.377,18.917,61.893,32.411,96.409,31.162c-30.266-8.138-61.178-16.919-86.914-35.731
		c10.067-4.067,20.953-7.708,31.909-5.138c26.522,5.423,49.902,20.13,75.746,27.769c14.347,5.426,31.054,3.961,43.617,13.707
		c7.138,16.991-2.466,34.338-2.998,51.65c-18.632-10.067-38.479-20.31-60.147-20.347c23.452,9.459,47.798,18.739,66.966,35.765
		c14.276,14.315,17.202,35.588,19.523,54.755c-74.101-34.479-158.519-49.578-239.613-36.407
		c-37.908,6.317-75.53,19.631-105.549,44.188c2.643-17.168,12.172-33.909,28.092-41.832c68.426-32.662,146.631-43.476,221.375-30.84
		c-74.281-22.667-154.878-8.317-224.945,21.773c0.358-5.89,0.858-11.815,1.394-17.704c13.634-11.923,30.98-17.99,47.757-24.024
		c27.949-9.564,56.611-18.131,86.201-20.273c6.282-0.535,12.529-1.464,18.667-2.82c-45.116-5.568-89.127,8.46-131.459,22.094
		c0.535-9.637,1.71-20.023,8.172-27.697c11.28-15.635,31.732-20.704,43.476-35.874C224.309,107.567,227.701,99.215,235.088,95.04
		 M219.418,237.994c88.808-16.419,181.612,2.571,261.637,42.798c10.315,5.211,5.71,17.633,3.964,26.233
		c-4.678,18.563-0.324,37.551-1.715,56.361c-32.518-11.563-68.174-5.889-101.763-11.207c-25.773-8.603-52.934-13.064-80.134-12.564
		c-30.197-0.5-60.68,2.783-89.271,12.885c-32.518,4.391-66.533,0.107-98.302,9.852c0.964-12.636,1.893-25.807-3.14-37.8
		c-4.782-11.636-5.354-26.378,4.176-35.872C142.355,259.945,181.227,245.776,219.418,237.994 M118.477,367.777
		c24.771-5.175,50.221-4.817,75.35-6.424c39.299-4.033,78.491,4.676,117.827,2.319c29.732-0.677,59.428-5.46,89.162-2.391
		c25.521,2.499,52.041-0.393,76.672,7.96c-1.071,11.208,1.997,24.271-5.142,33.909c-18.06,19.454-6.352,53.58-29.912,69.712
		c-24.201,14.277-53.896,10.206-80.739,9.174c-30.518-4.858-40.763-37.911-51.255-62.466c-2.07-8.068-8.281-23.023-18.704-15.206
		c-10.96,22.026-17.526,47.116-34.267,65.926c-16.884,16.459-42.333,12.172-63.715,12.778c-19.88-0.216-44.688-4.957-53.148-25.593
		c-8.995-17.986-2.678-42.831-20.238-56.181C118.119,390.265,117.369,378.985,118.477,367.777 M158.989,378.201
		c-15.564,8.353-10.602,28.556-9.638,42.797c4.319-9.21,6.496-19.847,14.492-26.843c8.28-9.708,20.452-14.169,30.983-20.81
		C182.796,373.525,170.41,374.094,158.989,378.201 M336.066,380.735c-10.137,10.6-7.532,26.913-6.067,40.227
		c4.495-9.21,7.602-19.49,15.062-26.878c8.424-9.888,20.596-14.85,31.698-20.917C363.088,373.952,348.24,373.703,336.066,380.735
		 M243.368,490.604c10.923-6.679,23.487,0.105,29.021,10.311c-8.068-1.75-16.777-5.891-24.7-1.353
		c-7.069,3.535-9.853,11.489-13.851,17.813C230.912,507.231,232.125,494.815,243.368,490.604 M323.037,500.985
		c5.428-12.702,20.277-15.777,31.805-9.349c2.607,3.032,5.211,5.995,7.888,8.958c-0.286,5.891-0.963,11.782-2.032,17.597
		c-1.715-3.855-3.322-7.78-4.855-11.706C347.88,495.672,334.316,496.488,323.037,500.985 M256.47,508.73
		c12.279-1.924,23.593,6.358,30.66,15.672c6.067,8.533,0.392,19.207-0.215,28.625c-1.57-3.96-3.069-7.885-4.567-11.81
		c-12.101-2.07-21.668-9.355-29.627-18.35C252.9,517.834,249.615,510.48,256.47,508.73 M305.618,528.327
		c7.317-13.204,22.063-21.305,37.194-19.597c4.356,18.175-14.525,29.022-29.554,32.166c-1.783,4.1-3.568,8.275-5.392,12.382
		C306.939,544.996,305.154,536.72,305.618,528.327L305.618,528.327z"/>
</g>
</svg>
